<svg width="48" height="26" viewBox="0 0 48 26" fill="none" xmlns="http://www.w3.org/2000/svg">
<path d="M0 15.9993C0.254849 15.5915 0.637124 15.4051 1.11207 15.4517C1.44801 15.4866 1.57543 15.3352 1.64494 15.0322C1.87662 13.9835 2.35156 13.063 3.16245 12.3289C4.15868 11.4201 5.36342 11.1288 6.67242 11.1171C7.7034 11.1055 8.73438 11.1288 9.76537 11.1055C9.96229 11.1055 10.2171 10.989 10.3562 10.8375C12.3023 8.65854 14.2368 6.47961 16.1598 4.28903C16.4494 3.95112 16.7621 3.79964 17.2139 3.79964C18.8704 3.82294 20.527 3.81129 22.1835 3.81129C22.3572 3.81129 22.5194 3.81129 22.6816 3.81129C22.7859 2.94904 23.0175 2.63444 23.4693 2.61113C23.9327 2.58783 24.1644 2.89078 24.3265 3.81129C24.5466 3.81129 24.7783 3.79964 24.9984 3.81129C25.4965 3.8346 25.6935 4.03268 25.7398 4.53372C25.7514 4.6852 25.7514 4.84832 25.7514 4.9998C25.7514 8.44881 25.7514 11.8862 25.7514 15.3352C25.7514 15.5216 25.7514 15.708 25.7514 15.9294C26.2263 15.9294 26.6549 15.9294 27.1299 15.9294C27.1299 14.5545 27.1299 13.1912 27.1299 11.758C27.3384 11.758 27.5006 11.7347 27.6627 11.758C28.5315 11.9211 29.1223 11.5249 29.7247 10.9074C32.8756 7.67977 36.0844 4.48711 39.2584 1.2828C39.5712 0.968192 39.9071 0.700195 40.3936 0.700195C40.9265 0.711847 41.3204 0.944888 41.5752 1.41097C41.8301 1.8887 41.7837 2.35479 41.4825 2.78591C41.3667 2.94904 41.2161 3.08887 41.0771 3.24034C37.7872 6.56118 34.4858 9.87036 31.1843 13.1795C30.9526 13.4126 30.8599 13.634 30.8715 13.9602C30.8947 14.6011 30.8831 15.242 30.8831 15.9294C34.1846 15.9294 37.4629 15.9294 40.7759 15.9294C40.7875 15.6381 40.7875 15.3585 40.8222 15.0905C40.8686 14.636 41.1813 14.3447 41.5752 14.3447C41.9691 14.3564 42.2934 14.6593 42.3282 15.1021C42.3513 15.3701 42.3282 15.6381 42.3282 15.9644C42.7915 15.9644 43.2317 15.9178 43.6603 15.976C43.9499 16.011 44.2859 16.1275 44.4712 16.3256C45.5949 17.4675 46.6954 18.6327 47.7611 19.8096C47.9349 19.996 48.0275 20.3455 47.9928 20.6019C47.9349 20.9515 47.5873 21.0447 47.2514 21.0447C46.3247 21.0447 45.4095 21.0447 44.4828 21.0447C44.309 21.0447 44.1469 21.0447 43.9615 21.0447C43.8225 22.1866 43.4055 23.1304 42.6641 23.946C40.6601 26.1716 36.8373 25.8453 35.2966 23.2819C34.9607 22.7226 34.7522 22.0584 34.5784 21.4175C34.4973 21.1146 34.3931 21.0447 34.1151 21.0447C33.0841 21.0563 32.0531 21.0447 31.0221 21.0447C24.9868 21.0447 18.9515 21.0447 12.9162 21.0447C12.7309 21.0447 12.5455 21.0447 12.337 21.0447C12.1864 22.1516 11.8157 23.1187 11.0628 23.8994C9.70744 25.2977 8.08568 25.7754 6.23223 25.2161C4.40194 24.6568 3.31304 23.3634 2.94235 21.4758C2.87285 21.1262 2.76859 21.0214 2.43265 21.0447C2.01563 21.068 1.58702 21.033 1.16999 21.0563C0.68346 21.0796 0.289602 20.9515 0.0115841 20.5203C0 19.0172 0 17.5141 0 15.9993ZM14.9666 10.6627C17.6309 10.6627 20.1794 10.6627 22.7395 10.6627C22.7395 9.15958 22.7395 7.69142 22.7395 6.21161C22.6121 6.19996 22.5194 6.18831 22.4267 6.18831C21.2915 6.18831 20.1447 6.17666 19.0094 6.19996C18.8589 6.19996 18.6735 6.33979 18.5577 6.46796C17.9321 7.16708 17.3298 7.88951 16.7158 8.61194C16.1366 9.2761 15.5806 9.94027 14.9666 10.6627ZM7.65707 18.3181C6.37123 18.2715 5.29392 19.2852 5.24758 20.5553C5.20124 21.9302 6.19747 23.0139 7.55281 23.0605C8.78072 23.1071 9.90437 22.0351 9.95071 20.7767C9.99705 19.4716 8.97765 18.3647 7.65707 18.3181ZM36.8605 20.6835C36.8605 21.9885 37.9031 23.0605 39.2005 23.0721C40.4631 23.0954 41.5636 22.0001 41.5752 20.7184C41.5868 19.3901 40.5326 18.3181 39.2121 18.3297C37.9031 18.3297 36.8721 19.3668 36.8605 20.6835Z" fill="#164E63"/>
</svg>
