<svg width="40" height="41" viewBox="0 0 40 41" fill="none" xmlns="http://www.w3.org/2000/svg">
<path d="M20.1723 40.5724C20.0571 40.5724 19.942 40.5724 19.8268 40.5724C19.7693 40.5411 19.7002 40.5098 19.6426 40.4889C13.8735 38.9339 9.18675 35.9699 5.65157 31.5554C2.34669 27.433 0.630923 22.7993 0.607892 17.6959C0.584862 12.9056 0.607892 8.11527 0.607892 3.32498C0.607892 3.19974 0.619407 3.07451 0.630923 2.91796C0.815166 2.91796 0.97638 2.91796 1.12608 2.91796C2.8073 2.91796 4.48853 2.9284 6.16976 2.90753C6.36551 2.90753 6.61885 2.8136 6.75703 2.68836C7.47098 2.07262 8.16189 1.41512 8.87584 0.799379C9.01402 0.674142 9.23281 0.580215 9.41705 0.580215C16.4759 0.569779 23.5347 0.569779 30.5821 0.580215C30.7663 0.580215 30.9966 0.674142 31.1348 0.788942C31.8488 1.40469 32.5397 2.06218 33.2536 2.67793C33.4033 2.80316 33.6451 2.89709 33.8409 2.89709C35.5336 2.91796 37.2264 2.90753 38.9306 2.90753C39.0803 2.90753 39.23 2.90753 39.4028 2.90753C39.4028 3.06407 39.4028 3.16843 39.4028 3.2728C39.4028 8.12571 39.4028 12.9891 39.4028 17.842C39.4028 19.4596 39.2185 21.0668 38.7924 22.6323C36.6045 30.7726 31.25 36.4918 22.7172 39.7479C21.8881 40.0714 21.0244 40.301 20.1723 40.5724ZM10.9486 14.7111C10.9486 14.9094 10.9486 15.0555 10.9486 15.1911C10.9486 17.675 10.9371 20.1693 10.9601 22.6531C10.9601 23.2271 11.0177 23.8011 11.1213 24.3647C11.9389 28.8837 17.0286 31.9624 21.9341 30.9187C26.2063 30.0108 29.0505 26.7755 29.0621 22.7992C29.0736 20.2319 29.0621 17.675 29.0621 15.1076C29.0621 14.9824 29.0621 14.8572 29.0621 14.7111C28.1754 14.7111 27.3463 14.7111 26.4711 14.7111C26.4711 13.6048 26.4942 12.5299 26.4596 11.4549C26.4481 10.9331 26.402 10.4113 26.2869 9.91033C25.6996 7.24906 22.982 5.26615 20.0226 5.25571C17.0401 5.24527 14.2995 7.24906 13.7122 9.91033C13.5971 10.4321 13.551 10.9644 13.5395 11.4967C13.5165 12.5612 13.528 13.6257 13.528 14.7111C12.6528 14.7111 11.8237 14.7111 10.9486 14.7111Z" fill="#164E63"/>
<path d="M13.5398 17.0698C17.881 17.0698 22.1532 17.0698 26.4714 17.0698C26.4714 17.2159 26.4714 17.3412 26.4714 17.4664C26.4714 19.3032 26.4714 21.14 26.4714 22.9768C26.4599 25.9616 23.8459 28.5394 20.5986 28.769C17.1671 29.009 14.1271 26.8696 13.6204 23.8535C13.5743 23.5612 13.5398 23.2586 13.5398 22.9664C13.5283 21.14 13.5398 19.3241 13.5398 17.4977C13.5398 17.362 13.5398 17.2368 13.5398 17.0698ZM21.278 19.4284C20.4029 19.4284 19.5623 19.4284 18.7447 19.4284C18.7447 21.7766 18.7447 24.0935 18.7447 26.4104C19.6083 26.4104 20.4374 26.4104 21.278 26.4104C21.278 24.0726 21.278 21.7662 21.278 19.4284Z" fill="#164E63"/>
<path d="M23.8802 14.6902C21.2777 14.6902 18.7213 14.6902 16.1189 14.6902C16.1189 13.5109 16.1074 12.342 16.1189 11.1732C16.1189 10.9018 16.1534 10.6305 16.211 10.3591C16.6371 8.62668 18.491 7.41606 20.4256 7.60392C22.3141 7.79177 23.8571 9.35723 23.8686 11.1001C23.8917 12.2898 23.8802 13.4692 23.8802 14.6902Z" fill="#164E63"/>
</svg>
