<svg width="34" height="41" viewBox="0 0 34 41" fill="none" xmlns="http://www.w3.org/2000/svg">
<path d="M17.4229 0.0723877C10.5987 0.140924 5.28223 5.57487 5.30181 12.2425C5.33118 18.9786 10.7945 24.3636 17.4523 24.3244C24.2276 24.2853 29.6028 18.8513 29.5637 12.0956C29.5245 5.52592 24.1787 0.10176 17.4229 0.0723877ZM18.5979 16.8932C18.2258 17.0106 18.0594 17.1575 18.1279 17.5491C18.1475 17.6666 18.1279 17.7939 18.1279 17.9114C18.1181 18.4989 17.9517 18.6555 17.3544 18.6555C16.7767 18.6555 16.6005 18.4793 16.5907 17.8918C16.5809 17.0988 16.5809 17.1183 15.827 16.9421C15.406 16.8442 14.9948 16.6875 14.5836 16.5407C14.2996 16.433 14.2017 16.2176 14.2996 15.9336C14.2996 15.9239 14.3094 15.9141 14.3094 15.8945C14.6032 14.935 14.7402 14.8664 15.6704 15.2385C16.2774 15.4735 16.8942 15.6203 17.5502 15.5126C18.1083 15.4245 18.5391 15.0623 18.637 14.5825C18.7545 14.0342 18.5293 13.623 18.0691 13.3586C17.5796 13.0747 17.0705 12.8299 16.5516 12.5949C15.8956 12.3012 15.2494 11.9781 14.8186 11.3809C13.9276 10.1472 14.3682 8.39465 15.7389 7.68971C15.9641 7.57222 16.1991 7.47431 16.4439 7.40577C16.6495 7.34703 16.718 7.23933 16.7082 7.04351C16.6984 6.78894 16.6984 6.53438 16.718 6.27982C16.7376 5.96651 16.9236 5.80006 17.2271 5.78048C17.3446 5.77069 17.4719 5.77069 17.5894 5.78048C17.981 5.79027 18.1671 5.95672 18.1964 6.34835C18.2258 6.66166 18.1377 7.06309 18.3041 7.24912C18.4706 7.43514 18.8818 7.41556 19.1951 7.4841C19.2734 7.50368 19.3615 7.53305 19.4399 7.55263C20.2623 7.8072 20.3994 8.36528 19.8021 9.02127C19.5769 9.26604 19.3224 9.19751 19.0678 9.08981C18.4706 8.83524 17.8635 8.73733 17.2173 8.82545C16.7278 8.8842 16.3557 9.17792 16.2774 9.55977C16.1697 10.0787 16.2774 10.392 16.7963 10.6759C17.3544 10.9892 17.9517 11.2438 18.5293 11.5179C19.2147 11.8508 19.8413 12.2523 20.2329 12.9376C21.1043 14.4356 20.3113 16.3644 18.5979 16.8932Z" fill="#164E63"/>
<path d="M0.533438 34.8985C0.699883 32.2256 0.729256 31.8536 0.895701 29.1807C0.934865 28.4953 0.99361 27.8001 1.04256 27.1148C1.08173 26.6154 1.2188 26.4392 1.71814 26.3707C2.92242 26.1846 4.13649 25.9986 5.35056 25.8322C6.14362 25.7245 6.93669 25.6559 7.72975 25.5482C9.66835 25.3035 11.5286 25.7049 13.3595 26.2238C16.0618 26.9973 18.7347 27.8491 21.4272 28.6226C22.4553 28.9163 22.9056 30.2283 22.044 31.129C21.486 31.7165 20.7516 31.9123 19.9782 32.0102C18.3039 32.2256 16.6688 31.9613 15.024 31.6871C14.2799 31.5598 13.5455 31.4326 12.8014 31.3151C12.6839 31.2955 12.5567 31.3542 12.4392 31.3738C12.4783 31.5011 12.4685 31.6675 12.5469 31.7361C12.8112 31.9613 13.0756 32.206 13.3889 32.3529C14.6715 32.9502 16.0422 33.2537 17.4521 33.4005C18.4312 33.4984 19.4103 33.567 20.3894 33.5376C21.9755 33.4984 23.5029 33.0872 25.0205 32.6564C26.9982 32.0788 28.9173 31.3347 30.7384 30.3751C31.0125 30.2283 31.2964 30.0814 31.6 29.9933C32.7259 29.6604 33.7442 30.6101 33.5386 31.7655C33.3917 32.5879 32.9609 33.2439 32.3147 33.7236C31.1985 34.5363 30.0726 35.3293 28.8977 36.0539C26.7828 37.3561 24.5995 38.531 22.328 39.5492C21.1237 40.0877 19.9096 40.1465 18.6368 40.0094C14.9652 39.6373 11.3426 39.0009 7.71017 38.3645C6.44714 38.1393 5.18411 37.9043 3.92109 37.6596C3.32384 37.5421 3.14761 37.4833 2.5112 37.3658C2.06082 37.2679 1.23838 37.0721 1.15026 37.0134C1.01319 36.9155 0.415947 36.563 0.435529 36.142C0.543229 34.6831 0.533438 34.8985 0.533438 34.8985Z" fill="#164E63"/>
</svg>
