<svg width="44" height="49" viewBox="0 0 44 49" fill="none" xmlns="http://www.w3.org/2000/svg">
<path d="M22.2142 10.5309C22.2142 14.532 22.1486 18.7736 22.1486 22.7966C22.1486 24.5676 22.2142 26.7978 22.2142 26.7978C22.2142 26.7978 23.854 28.1096 25.2314 28.9842C28.6204 31.1706 32.0093 33.357 35.3545 35.5653C32.534 41.5124 23.6353 44.5296 16.4858 42.0152C8.92076 39.3478 4.39488 31.1487 6.16588 23.2777C7.80569 15.9094 14.5836 10.4653 22.2142 10.5309Z" fill="#164E63"/>
<path d="M20.1807 5.54577C20.1807 4.88985 20.1807 4.34324 20.1807 3.70918C19.8746 3.66545 19.6122 3.62172 19.328 3.59986C17.6444 3.53427 16.7699 2.17869 17.557 0.648201C17.71 0.342103 18.3878 0.145325 18.8251 0.123461C20.9022 0.079733 22.9793 0.189054 25.0564 0.079733C26.4775 -0.00772361 26.6525 0.691929 26.6306 1.85073C26.6087 2.98766 26.4994 3.8185 25.0564 3.62172C24.7284 3.578 24.3786 3.64359 23.8976 3.66545C23.8976 4.27765 23.8976 4.86798 23.8976 5.2834C26.8274 6.17983 29.6478 7.0544 32.6214 7.97269C33.1024 7.46981 33.7146 6.81389 34.4798 5.98305C36.0322 7.33863 37.4752 8.58489 38.962 9.87487C38.3498 10.7057 37.8906 11.3398 37.4315 11.9738C45.7399 21.2661 44.275 33.0071 38.7652 39.9599C32.7963 47.4812 22.5201 50.1486 13.687 46.3661C4.89763 42.5836 -0.393493 33.2695 0.918356 23.9335C2.2958 14.1602 9.77333 6.96694 20.1807 5.54577ZM40.0989 26.8414C40.1208 16.6965 32.1404 8.69421 22.0391 8.71607C12.0253 8.71607 4.0012 16.7183 3.97934 26.7103C3.95747 36.7896 12.0035 44.8575 22.061 44.8575C32.0529 44.8575 40.077 36.8552 40.0989 26.8414Z" fill="#164E63"/>
</svg>
