<svg width="24" height="24" viewBox="0 0 24 24" fill="none" xmlns="http://www.w3.org/2000/svg">
<path d="M20.2695 8.51875L20.4758 9.4375C20.507 9.57688 20.507 9.715 20.4808 9.845C20.5044 9.93731 20.5066 10.0338 20.4872 10.1271C20.4679 10.2204 20.4274 10.308 20.369 10.3833C20.3105 10.4586 20.2356 10.5195 20.1501 10.5614C20.0645 10.6033 19.9704 10.625 19.8752 10.625H18.4658L17.5389 9.38937V9.38812C17.3906 9.18969 17.198 9.02865 16.9764 8.91786C16.7548 8.80707 16.5104 8.74959 16.2626 8.75H16.1252V7.69375C16.1252 7.2425 15.7577 6.875 15.3064 6.875H14.4439C13.9926 6.875 13.6252 7.2425 13.6252 7.69375V8.74375H9.87515V7.69375C9.87515 7.2425 9.50765 6.875 9.0564 6.875H8.1939C7.74265 6.875 7.37515 7.2425 7.37515 7.69375V8.75H7.23765C6.73265 8.75 6.26077 8.98812 5.9564 9.39375L5.0339 10.625H3.62515C3.52986 10.625 3.43583 10.6033 3.35024 10.5614C3.26465 10.5195 3.18978 10.4586 3.13134 10.3833C3.0729 10.308 3.03244 10.2204 3.01306 10.1271C2.99368 10.0338 2.99589 9.93731 3.01952 9.845C2.99216 9.71036 2.99387 9.57143 3.02453 9.4375L3.22453 8.51875C3.44733 7.52104 4.00324 6.62895 4.80073 5.98937C5.59823 5.34979 6.58974 5.00084 7.61202 5H15.8883C16.9101 5.0001 17.9012 5.34889 18.6978 5.98871C19.4945 6.62854 20.0489 7.52107 20.2695 8.51875Z" fill="#F1F5F9"/>
<path d="M17.0375 9.7625L19.325 12.8125C20.0878 13.827 20.5002 15.062 20.5 16.3312V18.4C20.5 18.9375 20.0625 19.375 19.525 19.375H3.975C3.4375 19.375 3 18.9375 3 18.4V16.3312C3 15.0625 3.4125 13.825 4.175 12.8125L6.45625 9.76875C6.64375 9.51875 6.93125 9.375 7.2375 9.375H7.80625C7.9125 9.375 8 9.2875 8 9.18125V7.69375C8 7.5875 8.0875 7.5 8.19375 7.5H9.05625C9.1625 7.5 9.25 7.5875 9.25 7.69375V9.18125C9.25 9.2875 9.3375 9.375 9.44375 9.375H14.0563C14.1625 9.375 14.25 9.2875 14.25 9.18125V7.69375C14.25 7.5875 14.3375 7.5 14.4437 7.5H15.3063C15.4125 7.5 15.5 7.5875 15.5 7.69375V9.18125C15.5 9.2875 15.5875 9.375 15.6937 9.375H16.2625C16.5687 9.375 16.8562 9.51875 17.0375 9.7625ZM10.3112 12.5C10.4175 12.5 10.5056 12.4125 10.4994 12.305V11.445C10.4992 11.3934 10.4787 11.344 10.4423 11.3075C10.4059 11.271 10.3566 11.2503 10.305 11.25H9.44437C9.33812 11.25 9.25 11.3375 9.25 11.445V12.305C9.25 12.4119 9.3375 12.5 9.45125 12.5H10.3112ZM12.1862 12.5C12.2116 12.5002 12.2368 12.4952 12.2602 12.4854C12.2836 12.4756 12.3047 12.4611 12.3224 12.4429C12.34 12.4247 12.3538 12.4031 12.3628 12.3794C12.3719 12.3556 12.376 12.3304 12.375 12.305V11.445C12.3747 11.3934 12.354 11.344 12.3175 11.3075C12.281 11.271 12.2316 11.2503 12.18 11.25H11.32C11.2683 11.2502 11.2188 11.2708 11.1823 11.3073C11.1458 11.3438 11.1252 11.3933 11.125 11.445V12.305C11.125 12.4119 11.2125 12.5 11.3262 12.5H12.1862ZM13.2006 12.5H14.0612C14.0866 12.5002 14.1118 12.4952 14.1352 12.4854C14.1586 12.4756 14.1797 12.4611 14.1974 12.4429C14.215 12.4247 14.2288 12.4031 14.2378 12.3794C14.2469 12.3556 14.251 12.3304 14.25 12.305V11.445C14.2497 11.3934 14.229 11.344 14.1925 11.3075C14.156 11.271 14.1066 11.2503 14.055 11.25H13.1944C13.0881 11.25 13 11.3375 13 11.445V12.305C13 12.4119 13.0875 12.5 13.2013 12.5H13.2006ZM10.3112 14.375C10.4175 14.375 10.5056 14.2875 10.4994 14.18V13.32C10.4992 13.2684 10.4787 13.219 10.4423 13.1825C10.4059 13.146 10.3566 13.1253 10.305 13.125H9.44437C9.33812 13.125 9.25 13.2125 9.25 13.32V14.18C9.25 14.2869 9.3375 14.375 9.45125 14.375H10.3112ZM11.3256 14.375H12.1862C12.2116 14.3752 12.2368 14.3702 12.2602 14.3604C12.2836 14.3506 12.3047 14.3361 12.3224 14.3179C12.34 14.2997 12.3538 14.2781 12.3628 14.2544C12.3719 14.2306 12.376 14.2054 12.375 14.18V13.32C12.3747 13.2684 12.354 13.219 12.3175 13.1825C12.281 13.146 12.2316 13.1253 12.18 13.125H11.32C11.2683 13.1252 11.2188 13.1458 11.1823 13.1823C11.1458 13.2188 11.1252 13.2683 11.125 13.32V14.18C11.125 14.2869 11.2119 14.375 11.3256 14.375ZM14.0612 14.375C14.0866 14.3752 14.1118 14.3702 14.1352 14.3604C14.1586 14.3506 14.1797 14.3361 14.1974 14.3179C14.215 14.2997 14.2288 14.2781 14.2378 14.2544C14.2469 14.2306 14.251 14.2054 14.25 14.18V13.32C14.2497 13.2684 14.229 13.219 14.1925 13.1825C14.156 13.146 14.1066 13.1253 14.055 13.125H13.1944C13.0881 13.125 13 13.2125 13 13.32V14.18C13 14.2869 13.0875 14.375 13.2013 14.375H14.0612ZM9.45063 16.25H10.3112C10.4175 16.25 10.5056 16.1625 10.4994 16.055V15.195C10.4992 15.1434 10.4787 15.094 10.4423 15.0575C10.4059 15.021 10.3566 15.0003 10.305 15H9.44437C9.33812 15 9.25 15.0875 9.25 15.195V16.055C9.25 16.1619 9.33688 16.25 9.45063 16.25ZM12.1862 16.25C12.2116 16.2502 12.2368 16.2452 12.2602 16.2354C12.2836 16.2256 12.3047 16.2111 12.3224 16.1929C12.34 16.1747 12.3538 16.1531 12.3628 16.1294C12.3719 16.1056 12.376 16.0804 12.375 16.055V15.195C12.3747 15.1434 12.354 15.094 12.3175 15.0575C12.281 15.021 12.2316 15.0003 12.18 15H11.32C11.2683 15.0002 11.2188 15.0208 11.1823 15.0573C11.1458 15.0938 11.1252 15.1433 11.125 15.195V16.055C11.125 16.1619 11.2125 16.25 11.3262 16.25H12.1862ZM13.2006 16.25H14.0612C14.0866 16.2502 14.1118 16.2452 14.1352 16.2354C14.1586 16.2256 14.1797 16.2111 14.1974 16.1929C14.215 16.1747 14.2288 16.1531 14.2378 16.1294C14.2469 16.1056 14.251 16.0804 14.25 16.055V15.195C14.2497 15.1434 14.229 15.094 14.1925 15.0575C14.156 15.021 14.1066 15.0003 14.055 15H13.1944C13.0881 15 13 15.0875 13 15.195V16.055C13 16.1619 13.0875 16.25 13.2013 16.25H13.2006Z" fill="#F1F5F9"/>
</svg>
