<svg width="25" height="24" viewBox="0 0 25 24" fill="none" xmlns="http://www.w3.org/2000/svg">
<path d="M19.8354 4.91005C18.914 3.98398 17.8165 3.24972 16.6069 2.75011C15.3973 2.25049 14.0999 1.99552 12.7902 2.00006C7.30276 2.00006 2.8304 6.45005 2.8304 11.91C2.8304 13.66 3.29271 15.36 4.15704 16.86L2.75 22L8.02638 20.62C9.48367 21.41 11.1219 21.83 12.7902 21.83C18.2776 21.83 22.75 17.38 22.75 11.92C22.75 9.27004 21.7148 6.78005 19.8354 4.91005ZM12.7902 20.15C11.3028 20.15 9.84548 19.75 8.56909 19L8.26759 18.82L5.13191 19.64L5.96608 16.6L5.76508 16.29C4.93869 14.977 4.49989 13.4593 4.49874 11.91C4.49874 7.37004 8.21734 3.67005 12.7801 3.67005C14.9912 3.67005 17.0716 4.53005 18.6294 6.09005C19.4007 6.85401 20.012 7.7627 20.4278 8.76346C20.8436 9.76422 21.0556 10.8371 21.0515 11.92C21.0716 16.46 17.353 20.15 12.7902 20.15ZM17.3329 13.99C17.0817 13.87 15.8555 13.27 15.6344 13.18C15.4033 13.1 15.2425 13.06 15.0716 13.3C14.9008 13.55 14.4284 14.11 14.2877 14.27C14.147 14.44 13.9962 14.46 13.745 14.33C13.4937 14.21 12.6897 13.94 11.745 13.1C11.0013 12.44 10.5088 11.63 10.358 11.38C10.2173 11.13 10.3379 11 10.4686 10.87C10.5791 10.76 10.7198 10.58 10.8405 10.44C10.9611 10.3 11.0113 10.19 11.0917 10.03C11.1721 9.86004 11.1319 9.72004 11.0716 9.60004C11.0113 9.48004 10.5088 8.26004 10.3078 7.76004C10.1068 7.28004 9.89573 7.34004 9.74497 7.33004H9.26256C9.09171 7.33004 8.8304 7.39004 8.59925 7.64004C8.37814 7.89004 7.73492 8.49004 7.73492 9.71004C7.73492 10.93 8.6294 12.11 8.75 12.27C8.8706 12.44 10.5088 14.94 13.0013 16.01C13.5942 16.27 14.0565 16.42 14.4183 16.53C15.0113 16.72 15.554 16.69 15.9862 16.63C16.4686 16.56 17.4636 16.03 17.6646 15.45C17.8756 14.87 17.8756 14.38 17.8053 14.27C17.7349 14.16 17.5842 14.11 17.3329 13.99Z" fill="#F1F5F9"/>
</svg>
